<svg id="visual" viewBox="0 0 960 540" width="960" height="540" xmlns="http://www.w3.org/2000/svg" xmlns:xlink="http://www.w3.org/1999/xlink" version="1.1"><path d="M0 84L22.8 85.3C45.7 86.7 91.3 89.3 137 92.7C182.7 96 228.3 100 274 90.8C319.7 81.7 365.3 59.3 411.2 45.3C457 31.3 503 25.7 548.8 29.8C594.7 34 640.3 48 686 47.5C731.7 47 777.3 32 823 34.5C868.7 37 914.3 57 937.2 67L960 77L960 0L937.2 0C914.3 0 868.7 0 823 0C777.3 0 731.7 0 686 0C640.3 0 594.7 0 548.8 0C503 0 457 0 411.2 0C365.3 0 319.7 0 274 0C228.3 0 182.7 0 137 0C91.3 0 45.7 0 22.8 0L0 0Z" fill="#0066FF" stroke-linecap="round" stroke-linejoin="miter"></path></svg>